<svg width="24" height="24" viewBox="0 0 24 24" fill="none" xmlns="http://www.w3.org/2000/svg">
<path d="M3.55859 12.0039C3.55859 12.3115 3.69043 12.6191 3.91016 12.8389L9.67578 18.5869C9.91309 18.8242 10.1855 18.9385 10.4668 18.9385C11.1172 18.9385 11.5742 18.4814 11.5742 17.8662C11.5742 17.5322 11.4336 17.2686 11.2314 17.0576L9.24512 15.0625L7.0127 13.0146L8.99023 13.1289H19.291C19.9766 13.1289 20.4424 12.6719 20.4424 12.0039C20.4424 11.3359 19.9766 10.8789 19.291 10.8789H8.99023L7.0127 10.9844L9.24512 8.94531L11.2314 6.94141C11.4424 6.73047 11.5742 6.4668 11.5742 6.13281C11.5742 5.52637 11.1172 5.06055 10.4668 5.06055C10.1855 5.06055 9.91309 5.1748 9.6582 5.4209L3.91016 11.1689C3.69043 11.3799 3.55859 11.6963 3.55859 12.0039Z" fill="white"/>
</svg>
