<svg width="24" height="24" viewBox="0 0 24 24" fill="none" xmlns="http://www.w3.org/2000/svg">
<path d="M3.55811 12.0039C3.55811 12.3115 3.68994 12.6191 3.90967 12.8389L9.67529 18.5869C9.9126 18.8242 10.1851 18.9385 10.4663 18.9385C11.1167 18.9385 11.5737 18.4814 11.5737 17.8662C11.5737 17.5322 11.4331 17.2686 11.231 17.0576L9.24463 15.0625L7.01221 13.0146L8.98975 13.1289H19.2905C19.9761 13.1289 20.4419 12.6719 20.4419 12.0039C20.4419 11.3359 19.9761 10.8789 19.2905 10.8789H8.98975L7.01221 10.9844L9.24463 8.94531L11.231 6.94141C11.4419 6.73047 11.5737 6.4668 11.5737 6.13281C11.5737 5.52637 11.1167 5.06055 10.4663 5.06055C10.1851 5.06055 9.9126 5.1748 9.65771 5.4209L3.90967 11.1689C3.68994 11.3799 3.55811 11.6963 3.55811 12.0039Z" fill="#77797B"/>
</svg>
