<svg width="32" height="32" viewBox="0 0 32 32" fill="none" xmlns="http://www.w3.org/2000/svg">
<g clip-path="url(#clip0_431_16)">
<path d="M23.2076 23.1523C22.3437 23.1515 21.5151 23.494 20.9039 24.1043C20.2926 24.7145 19.9489 25.5426 19.9482 26.4065C19.9478 27.2703 20.2904 28.0989 20.901 28.7099C21.5114 29.321 22.3395 29.6644 23.2034 29.6647C24.0672 29.6649 24.8956 29.3221 25.5064 28.7112C26.1173 28.1006 26.4605 27.2722 26.4605 26.4086C26.4596 25.5457 26.1168 24.7184 25.5071 24.1082C24.8973 23.4978 24.0703 23.1541 23.2075 23.1524L23.2076 23.1523Z" fill="white"/>
<path d="M28.7462 7.53403H8.92026L8.60618 5.43335H8.6064C8.51178 4.75876 8.17645 4.14087 7.66239 3.69365C7.14834 3.24661 6.48996 3.00022 5.80859 3H3.25587C2.80708 3 2.39249 3.23939 2.16821 3.62793C1.94393 4.01649 1.94393 4.49529 2.16821 4.88403C2.39249 5.27258 2.80713 5.51196 3.25587 5.51196H5.8119C5.97157 5.51086 6.1067 5.62958 6.12576 5.78815L8.05997 19.0449C8.18832 19.8603 8.60316 20.6035 9.22977 21.141C9.85642 21.6783 10.6538 21.975 11.4794 21.9777H24.5449C25.3413 21.9788 26.1136 21.7045 26.731 21.2014C27.3485 20.6985 27.7729 19.9977 27.933 19.2175L29.9772 9.02835C30.0482 8.66061 29.9516 8.28037 29.7135 7.99127C29.4754 7.70216 29.1208 7.53439 28.7463 7.53373L28.7462 7.53403Z" fill="white"/>
<path d="M11.9664 23.1524C10.8263 23.1986 9.79364 23.8379 9.24409 24.838C8.69478 25.838 8.70879 27.0525 9.28133 28.0395C9.85364 29.0266 10.901 29.6419 12.0417 29.6616H12.1203C13.2669 29.6114 14.3022 28.9612 14.8456 27.9503C15.389 26.9395 15.3603 25.7171 14.7696 24.733C14.1791 23.749 13.114 23.1484 11.9663 23.1524H11.9664Z" fill="white"/>
</g>
<defs>
<clipPath id="clip0_431_16">
<rect width="28" height="27" fill="white" transform="translate(2 3)"/>
</clipPath>
</defs>
</svg>
