<svg width="20" height="20" viewBox="0 0 20 20" fill="none" xmlns="http://www.w3.org/2000/svg">
<path fill-rule="evenodd" clip-rule="evenodd" d="M19.1168 9.45C18.9085 8.19167 17.9835 7.16667 16.7752 6.80833C16.3335 5.875 15.7085 5.05833 14.9502 4.38333C13.6335 3.20833 11.9002 2.5 10.0002 2.5C8.10016 2.5 6.36683 3.20833 5.05016 4.38333C4.2835 5.05833 3.6585 5.88333 3.22516 6.80833C2.01683 7.16667 1.09183 8.18333 0.883496 9.45C0.850163 9.625 0.833496 9.80833 0.833496 10C0.833496 10.1917 0.850163 10.375 0.883496 10.55C1.09183 11.8083 2.01683 12.8333 3.22516 13.1917C3.6585 14.1167 4.2835 14.9333 5.0335 15.6C6.35016 16.7833 8.09183 17.5 10.0002 17.5C11.9085 17.5 13.6502 16.7833 14.9752 15.6C15.7252 14.9333 16.3502 14.1083 16.7835 13.1917C17.9835 12.8333 18.9085 11.8167 19.1168 10.55C19.1502 10.375 19.1668 10.1917 19.1668 10C19.1668 9.80833 19.1502 9.625 19.1168 9.45ZM7.91683 9.79167C8.49213 9.79167 8.9585 9.3253 8.9585 8.75C8.9585 8.1747 8.49213 7.70833 7.91683 7.70833C7.34153 7.70833 6.87516 8.1747 6.87516 8.75C6.87516 9.3253 7.34153 9.79167 7.91683 9.79167ZM12.0835 9.79167C12.6588 9.79167 13.1252 9.3253 13.1252 8.75C13.1252 8.1747 12.6588 7.70833 12.0835 7.70833C11.5082 7.70833 11.0418 8.1747 11.0418 8.75C11.0418 9.3253 11.5082 9.79167 12.0835 9.79167ZM13.7502 11.6667C13.1168 13.1417 11.6752 14.1667 10.0002 14.1667C8.32516 14.1667 6.8835 13.1417 6.25016 11.6667H13.7502ZM15.6764 11.6523C15.7283 11.6596 15.7791 11.6667 15.8335 11.6667C16.7502 11.6667 17.5002 10.9167 17.5002 10C17.5002 9.08333 16.7502 8.33333 15.8335 8.33333C15.7791 8.33333 15.7283 8.34043 15.6764 8.34768C15.6487 8.35153 15.6208 8.35544 15.5918 8.35833C15.4252 7.8 15.1835 7.28333 14.8752 6.80833C13.8335 5.21667 12.0418 4.16667 10.0002 4.16667C7.9585 4.16667 6.16683 5.21667 5.12516 6.80833C4.81683 7.28333 4.57516 7.8 4.4085 8.35833C4.37954 8.35544 4.35158 8.35153 4.32394 8.34768C4.27203 8.34043 4.2212 8.33333 4.16683 8.33333C3.25016 8.33333 2.50016 9.08333 2.50016 10C2.50016 10.9167 3.25016 11.6667 4.16683 11.6667C4.2212 11.6667 4.27203 11.6596 4.32394 11.6523C4.35158 11.6485 4.37954 11.6446 4.4085 11.6417C4.57516 12.2 4.81683 12.7167 5.12516 13.1917C6.16683 14.7833 7.9585 15.8333 10.0002 15.8333C12.0418 15.8333 13.8335 14.7833 14.8752 13.1917C15.1835 12.7167 15.4252 12.2 15.5918 11.6417C15.6208 11.6446 15.6487 11.6485 15.6764 11.6523Z" fill="#0F172A"/>
</svg>
