<svg width="20" height="20" viewBox="0 0 20 20" fill="none" xmlns="http://www.w3.org/2000/svg">
<path fill-rule="evenodd" clip-rule="evenodd" d="M14.1668 6.66732H16.6668L19.1668 10.0007V14.1673H17.5002C17.5002 15.5506 16.3835 16.6673 15.0002 16.6673C13.6168 16.6673 12.5002 15.5506 12.5002 14.1673H7.50016C7.50016 15.5506 6.3835 16.6673 5.00016 16.6673C3.61683 16.6673 2.50016 15.5506 2.50016 14.1673H0.833496V5.00065C0.833496 4.08398 1.5835 3.33398 2.50016 3.33398H14.1668V6.66732ZM4.16683 14.1673C4.16683 14.6257 4.54183 15.0007 5.00016 15.0007C5.4585 15.0007 5.8335 14.6257 5.8335 14.1673C5.8335 13.709 5.4585 13.334 5.00016 13.334C4.54183 13.334 4.16683 13.709 4.16683 14.1673ZM16.2502 7.91732L17.8835 10.0007H14.1668V7.91732H16.2502ZM14.1668 14.1673C14.1668 14.6257 14.5418 15.0007 15.0002 15.0007C15.4585 15.0007 15.8335 14.6257 15.8335 14.1673C15.8335 13.709 15.4585 13.334 15.0002 13.334C14.5418 13.334 14.1668 13.709 14.1668 14.1673Z" fill="#0F172A"/>
</svg>
