<svg width="24" height="24" viewBox="0 0 24 24" fill="none" xmlns="http://www.w3.org/2000/svg">
<path d="M12.0005 3.27344C9.63034 3.27344 9.33289 3.2838 8.40198 3.32616C7.47289 3.36871 6.83871 3.5158 6.2838 3.73162C5.7098 3.95453 5.22289 4.25271 4.7378 4.73798C4.25234 5.22307 3.95416 5.70998 3.73052 6.2838C3.51416 6.83889 3.36689 7.47326 3.32507 8.40198C3.28361 9.33289 3.27271 9.63053 3.27271 12.0007C3.27271 14.3709 3.28325 14.6674 3.32543 15.5983C3.36816 16.5274 3.51525 17.1616 3.73089 17.7165C3.95398 18.2905 4.25216 18.7774 4.73743 19.2625C5.22234 19.748 5.70925 20.0469 6.28289 20.2698C6.83816 20.4856 7.47252 20.6327 8.40143 20.6753C9.33234 20.7176 9.62961 20.728 11.9996 20.728C14.37 20.728 14.6665 20.7176 15.5974 20.6753C16.5265 20.6327 17.1614 20.4856 17.7167 20.2698C18.2905 20.0469 18.7767 19.748 19.2616 19.2625C19.7471 18.7774 20.0452 18.2905 20.2689 17.7167C20.4834 17.1616 20.6307 16.5273 20.6743 15.5985C20.7162 14.6676 20.7271 14.3709 20.7271 12.0007C20.7271 9.63053 20.7162 9.33307 20.6743 8.40216C20.6307 7.47307 20.4834 6.83889 20.2689 6.28398C20.0452 5.70998 19.7471 5.22307 19.2616 4.73798C18.7762 4.25253 18.2907 3.95435 17.7162 3.73162C17.1598 3.5158 16.5253 3.36871 15.5962 3.32616C14.6653 3.2838 14.3689 3.27344 11.998 3.27344H12.0005ZM11.2176 4.84616C11.45 4.8458 11.7092 4.84616 12.0005 4.84616C14.3307 4.84616 14.6069 4.85453 15.5271 4.89635C16.378 4.93526 16.8398 5.07744 17.1474 5.19689C17.5547 5.35507 17.8451 5.54416 18.1503 5.84962C18.4558 6.15507 18.6449 6.44598 18.8034 6.85326C18.9229 7.16053 19.0652 7.62235 19.104 8.47326C19.1458 9.39326 19.1549 9.66962 19.1549 11.9987C19.1549 14.3278 19.1458 14.6042 19.104 15.5242C19.0651 16.3751 18.9229 16.8369 18.8034 17.1442C18.6452 17.5514 18.4558 17.8414 18.1503 18.1467C17.8449 18.4522 17.5549 18.6413 17.1474 18.7994C16.8402 18.9194 16.378 19.0613 15.5271 19.1002C14.6071 19.142 14.3307 19.1511 12.0005 19.1511C9.67016 19.1511 9.39398 19.142 8.47398 19.1002C7.62307 19.0609 7.16125 18.9187 6.85343 18.7993C6.44616 18.6411 6.15525 18.452 5.8498 18.1465C5.54434 17.8411 5.35525 17.5509 5.19671 17.1434C5.07725 16.8362 4.93489 16.3743 4.89616 15.5234C4.85434 14.6034 4.84598 14.3271 4.84598 11.9965C4.84598 9.66598 4.85434 9.39107 4.89616 8.47107C4.93507 7.62017 5.07725 7.15835 5.19671 6.85071C5.35489 6.44344 5.54434 6.15253 5.8498 5.84707C6.15525 5.54162 6.44616 5.35253 6.85343 5.19398C7.16107 5.07398 7.62307 4.93217 8.47398 4.89307C9.27907 4.85671 9.59107 4.8458 11.2176 4.84398V4.84616ZM16.6591 6.29526C16.4519 6.29526 16.2494 6.35669 16.0772 6.47178C15.905 6.58687 15.7707 6.75045 15.6915 6.94184C15.6122 7.13322 15.5915 7.34381 15.6319 7.54697C15.6724 7.75014 15.7722 7.93674 15.9187 8.08319C16.0652 8.22964 16.2518 8.32935 16.455 8.36972C16.6582 8.41009 16.8687 8.3893 17.0601 8.30998C17.2515 8.23066 17.415 8.09637 17.53 7.9241C17.6451 7.75183 17.7064 7.54931 17.7063 7.34216C17.7063 6.76398 17.2372 6.29489 16.6591 6.29489V6.29526ZM12.0005 7.51889C9.52543 7.51889 7.5187 9.52562 7.5187 12.0007C7.5187 14.4758 9.52543 16.4816 12.0005 16.4816C14.4756 16.4816 16.4818 14.4758 16.4818 12.0007C16.4818 9.52562 14.4754 7.51889 12.0003 7.51889H12.0005ZM12.0005 9.09162C13.6071 9.09162 14.9096 10.394 14.9096 12.0007C14.9096 13.6073 13.6071 14.9098 12.0005 14.9098C10.3938 14.9098 9.09143 13.6073 9.09143 12.0007C9.09143 10.394 10.3938 9.09162 12.0005 9.09162Z" fill="white"/>
</svg>
