<svg width="24" height="24" viewBox="0 0 24 24" fill="none" xmlns="http://www.w3.org/2000/svg">
<path d="M11.1787 5.96199L11.9997 7.1427L12.8207 5.96205C13.6565 4.76029 14.9864 4 16.4696 4C18.9285 4 21 6.10162 21 8.79123C21 9.82788 20.4962 11.1177 19.5917 12.5515C18.7024 13.9612 17.5005 15.3941 16.2736 16.6904C15.0505 17.9827 13.824 19.1167 12.9015 19.9289C12.5457 20.2421 12.2361 20.5066 11.9906 20.7129C11.7468 20.5135 11.4405 20.2586 11.089 19.9566C10.1679 19.165 8.94319 18.0558 7.72202 16.781C6.49712 15.5022 5.29763 14.0794 4.41014 12.6613C3.51039 11.2236 3 9.89853 3 8.79118C3 7.01488 3.54599 5.8515 4.30834 5.12774C5.08129 4.39391 6.19485 4 7.52983 4C9.01347 4 10.3431 4.76029 11.1787 5.96199Z" stroke="#77797B" stroke-width="2"/>
</svg>
