<svg width="32" height="32" viewBox="0 0 32 32" fill="none" xmlns="http://www.w3.org/2000/svg">
<path d="M15.9132 4.92605L15.9996 5.05124L16.086 4.92606C17.5436 2.81462 19.896 1.43848 22.5554 1.43848C26.9717 1.43848 30.5616 5.21778 30.5616 9.89018C30.5616 11.813 29.6575 13.9885 28.2859 16.1787C26.9159 18.3664 25.0876 20.5564 23.2566 22.5052C21.426 24.4536 19.5951 26.1587 18.2217 27.3768C17.535 27.9858 16.9629 28.4729 16.5625 28.8077C16.3623 28.9751 16.2051 29.1044 16.0979 29.1918C16.0576 29.2247 16.0243 29.2517 15.9986 29.2725C15.973 29.2524 15.94 29.2265 15.9001 29.1949C15.793 29.1102 15.6358 28.9847 15.4356 28.8221C15.0353 28.4968 14.4633 28.0229 13.7767 27.4286C12.4035 26.2397 10.5728 24.5698 8.74253 22.6449C6.91187 20.7197 5.08385 18.5417 3.71409 16.3368C2.34307 14.1298 1.43829 11.9072 1.43829 9.89011C1.43829 6.97098 2.33873 4.8616 3.78161 3.48161C5.22549 2.10066 7.22476 1.43848 9.4437 1.43848C12.1038 1.43848 14.4559 2.81462 15.9132 4.92605Z" fill="white" stroke="white" stroke-width="0.21"/>
</svg>
