<svg width="24" height="24" viewBox="0 0 24 24" fill="none" xmlns="http://www.w3.org/2000/svg">
<mask id="path-1-inside-1_2_11704" fill="white">
<path d="M11.9131 2C6.64679 2 2.39427 6.28068 2.39427 11.547C2.39427 14.0816 3.37995 16.391 5.01337 18.1089C4.67542 19.7986 3.85871 21.77 2 22.6148C2 22.6148 5.97089 23.5724 9.77281 20.8406C10.4769 21.0096 11.2091 21.0941 11.9413 21.0941C17.2077 21.0941 21.4883 16.8134 21.4883 11.547C21.4602 6.28068 17.1795 2 11.9131 2Z"/>
</mask>
<path d="M5.01337 18.1089L6.97453 18.5011L7.17813 17.4831L6.46278 16.7307L5.01337 18.1089ZM2 22.6148L1.17239 20.7941L-4.11522 23.1976L1.53117 24.5591L2 22.6148ZM9.77281 20.8406L10.2396 18.8958L9.3493 18.6822L8.60578 19.2164L9.77281 20.8406ZM21.4883 11.547H23.4884L23.4883 11.5363L21.4883 11.547ZM11.9131 0C5.53453 0 0.394273 5.18381 0.394273 11.547H4.39427C4.39427 7.37754 7.75905 4 11.9131 4V0ZM0.394273 11.547C0.394273 14.6114 1.58877 17.4096 3.56397 19.487L6.46278 16.7307C5.17114 15.3723 4.39427 13.5519 4.39427 11.547H0.394273ZM3.05221 17.7166C2.74958 19.2298 2.12334 20.3619 1.17239 20.7941L2.82761 24.4356C5.59409 23.1781 6.60127 20.3674 6.97453 18.5011L3.05221 17.7166ZM2 22.6148C1.53117 24.5591 1.53201 24.5593 1.53286 24.5595C1.53317 24.5596 1.53404 24.5598 1.53466 24.5599C1.53588 24.5602 1.53717 24.5605 1.53852 24.5609C1.54123 24.5615 1.54418 24.5622 1.54739 24.563C1.5538 24.5645 1.56122 24.5662 1.56962 24.5681C1.58642 24.5719 1.60718 24.5765 1.63176 24.5817C1.68091 24.592 1.74544 24.6049 1.8243 24.6191C1.98189 24.6474 2.19762 24.681 2.463 24.71C2.9923 24.7677 3.72804 24.8079 4.59944 24.7473C6.34335 24.626 8.66851 24.0968 10.9398 22.4648L8.60578 19.2164C7.07519 20.3162 5.51394 20.6741 4.32193 20.7569C3.72537 20.7984 3.23077 20.77 2.89672 20.7336C2.73041 20.7154 2.60622 20.6956 2.5318 20.6822C2.49466 20.6755 2.47016 20.6705 2.45928 20.6682C2.45385 20.667 2.45185 20.6666 2.45339 20.6669C2.45416 20.6671 2.45583 20.6675 2.45839 20.6681C2.45968 20.6684 2.46119 20.6687 2.46293 20.6692C2.4638 20.6694 2.46472 20.6696 2.46571 20.6698C2.4662 20.6699 2.46698 20.6701 2.46723 20.6702C2.46802 20.6704 2.46883 20.6706 2 22.6148ZM9.30606 22.7854C10.1676 22.9922 11.0567 23.0941 11.9413 23.0941V19.0941C11.3615 19.0941 10.7861 19.027 10.2396 18.8958L9.30606 22.7854ZM11.9413 23.0941C18.3122 23.0941 23.4883 17.918 23.4883 11.547H19.4883C19.4883 15.7088 16.1031 19.0941 11.9413 19.0941V23.0941ZM23.4883 11.5363C23.4543 5.17584 18.2861 0 11.9131 0V4C16.0729 4 19.4661 7.38552 19.4884 11.5577L23.4883 11.5363Z" fill="#77797B" mask="url(#path-1-inside-1_2_11704)"/>
</svg>
