<svg width="20" height="20" viewBox="0 0 20 20" fill="none" xmlns="http://www.w3.org/2000/svg">
<path fill-rule="evenodd" clip-rule="evenodd" d="M9.16683 0.458984H10.8335V2.91732H9.16683V0.458984ZM5.6335 4.03398L4.1335 2.54232L2.9585 3.71732L4.45016 5.20898L5.6335 4.03398ZM3.3335 8.75065H0.833496V10.4173H3.3335V8.75065ZM17.0418 3.71732L15.8668 2.54232L14.3752 4.03398L15.5502 5.20898L17.0418 3.71732ZM15.8585 16.634L14.3668 15.134L15.5335 13.9673L17.0335 15.459L15.8585 16.634ZM19.1668 8.75065H16.6668V10.4173H19.1668V8.75065ZM5.00016 9.58398C5.00016 6.82565 7.24183 4.58398 10.0002 4.58398C12.7585 4.58398 15.0002 6.82565 15.0002 9.58398C15.0002 12.3423 12.7585 14.584 10.0002 14.584C7.24183 14.584 5.00016 12.3423 5.00016 9.58398ZM10.8335 18.709V16.2507H9.16683V18.709H10.8335ZM4.1335 16.6257L2.9585 15.4506L4.45016 13.9507L5.62516 15.1257L4.1335 16.6257Z" fill="#0F172A"/>
</svg>
