<svg width="40" height="40" viewBox="0 0 40 40" fill="none" xmlns="http://www.w3.org/2000/svg">
<g clip-path="url(#clip0_2_11732)">
<path d="M20.0007 21.6673C23.6826 21.6673 26.6673 18.6826 26.6673 15.0007C26.6673 11.3188 23.6826 8.33398 20.0007 8.33398C16.3188 8.33398 13.334 11.3188 13.334 15.0007C13.334 18.6826 16.3188 21.6673 20.0007 21.6673Z" fill="#FFBD61"/>
<path d="M19.9994 51.111C27.7723 51.111 34.0734 44.8099 34.0734 37.037C34.0734 29.2641 27.7723 22.9629 19.9994 22.9629C12.2265 22.9629 5.92529 29.2641 5.92529 37.037C5.92529 44.8099 12.2265 51.111 19.9994 51.111Z" fill="#FFBD61"/>
</g>
<rect x="1" y="1" width="38" height="38" rx="19" stroke="#FFBD61" stroke-width="2"/>
<defs>
<clipPath id="clip0_2_11732">
<rect width="40" height="40" rx="20" fill="white"/>
</clipPath>
</defs>
</svg>
