<svg width="20" height="20" viewBox="0 0 20 20" fill="none" xmlns="http://www.w3.org/2000/svg">
<path d="M1.15016 2.42276C1.07508 3.26092 1 4.09909 1 4.89827C1 11.2137 4.99791 16.0478 10.1783 16.0478C12.4494 16.0478 14.5516 15.0342 15.4713 13.3189C16.2784 14.43 16.6726 15.7359 17.3483 17.7826C17.4046 17.9775 17.6111 18.0555 17.7612 17.958L18.3806 17.6462C18.8311 17.4512 19 17.1784 19 16.691C19 15.3266 17.3107 13.2799 16.4473 12.4612C12.806 8.97214 7.19395 10.9993 5.84254 7.15936C5.80501 7.0814 5.78624 7.02292 5.78624 6.98393C5.78624 6.828 5.89885 6.71104 6.01147 6.71104C6.14286 6.71104 6.21794 6.78901 6.31178 6.88647C9.08968 9.77132 12.9562 7.35429 16.4661 10.7459C16.7477 10.9798 17.1043 10.9019 17.123 10.551C17.1606 10.2586 17.1794 9.92726 17.1794 9.5569C17.1794 5.3271 14.3076 3.53382 10.1971 3.53382C8.90198 3.53382 7.58811 3.70924 6.36809 3.70924C4.64129 3.70924 3.10219 3.39737 2.05109 2.20835C1.73201 1.87698 1.20647 1.93545 1.15016 2.42276Z" fill="#0F172A"/>
</svg>
