<svg width="24" height="24" viewBox="0 0 24 24" fill="none" xmlns="http://www.w3.org/2000/svg">
<g clip-path="url(#clip0_426_7)">
<path d="M16.3183 13.3431C16.2832 13.3262 14.971 12.6801 14.7378 12.5961C14.6426 12.5619 14.5406 12.5286 14.4321 12.5286C14.2549 12.5286 14.1061 12.6169 13.9901 12.7903C13.8591 12.9852 13.4622 13.449 13.3396 13.5876C13.3236 13.6059 13.3018 13.6277 13.2887 13.6277C13.2769 13.6277 13.0738 13.5441 13.0124 13.5174C11.6047 12.9059 10.5362 11.4355 10.3897 11.1875C10.3688 11.1519 10.3679 11.1357 10.3677 11.1357C10.3729 11.1168 10.4202 11.0693 10.4446 11.0449C10.5161 10.9741 10.5935 10.8809 10.6685 10.7908C10.7039 10.748 10.7395 10.7053 10.7744 10.6649C10.8831 10.5385 10.9314 10.4403 10.9875 10.3266L11.0169 10.2675C11.1539 9.99531 11.0369 9.76563 10.9991 9.69147C10.9681 9.62941 10.414 8.29215 10.3551 8.15166C10.2134 7.81264 10.0262 7.65479 9.76611 7.65479C9.74198 7.65479 9.76611 7.65479 9.66489 7.65905C9.54164 7.66425 8.87044 7.75262 8.57367 7.93969C8.25896 8.1381 7.72656 8.77055 7.72656 9.88281C7.72656 10.8839 8.36182 11.829 8.63457 12.1885C8.64135 12.1976 8.6538 12.216 8.67185 12.2424C9.71638 13.7678 11.0185 14.8983 12.3385 15.4256C13.6093 15.9333 14.2111 15.9919 14.5532 15.9919C14.5533 15.9919 14.5533 15.9919 14.5533 15.9919C14.6971 15.9919 14.8121 15.9807 14.9136 15.9707L14.978 15.9645C15.4171 15.9256 16.3818 15.4257 16.6013 14.8159C16.7741 14.3355 16.8197 13.8107 16.7047 13.6203C16.6259 13.4908 16.4902 13.4256 16.3183 13.3431Z" fill="white"/>
<path d="M12.1598 3C7.28481 3 3.31873 6.93627 3.31873 11.7746C3.31873 13.3395 3.73752 14.8713 4.53086 16.2119L3.01238 20.6912C2.98409 20.7747 3.00513 20.867 3.0669 20.9299C3.11149 20.9755 3.17198 21 3.23375 21C3.25742 21 3.28127 20.9964 3.30453 20.989L7.97518 19.5048C9.2533 20.1877 10.6979 20.5482 12.1598 20.5482C17.0343 20.5482 21 16.6124 21 11.7746C21 6.93627 17.0343 3 12.1598 3ZM12.1598 18.7204C10.7841 18.7204 9.4517 18.3232 8.30637 17.5716C8.26785 17.5463 8.22315 17.5334 8.17815 17.5334C8.15436 17.5334 8.13052 17.537 8.10731 17.5444L5.7676 18.2881L6.5229 16.0598C6.54733 15.9876 6.53512 15.9081 6.49012 15.8466C5.61794 14.6549 5.15689 13.2469 5.15689 11.7746C5.15689 7.94416 8.29836 4.82782 12.1597 4.82782C16.0206 4.82782 19.1617 7.94416 19.1617 11.7746C19.1618 15.6046 16.0207 18.7204 12.1598 18.7204Z" fill="white"/>
</g>
<defs>
<clipPath id="clip0_426_7">
<rect width="18" height="18" fill="white" transform="translate(3 3)"/>
</clipPath>
</defs>
</svg>
