<svg width="24" height="24" viewBox="0 0 24 24" fill="none" xmlns="http://www.w3.org/2000/svg">
<g clip-path="url(#clip0_336_4)">
<path d="M12.1598 3C7.28481 3 3.31873 6.93627 3.31873 11.7746C3.31873 13.3395 3.73752 14.8713 4.53086 16.2119L3.01238 20.6912C2.98409 20.7747 3.00513 20.867 3.0669 20.9299C3.11149 20.9755 3.17198 21 3.23375 21C3.25742 21 3.28127 20.9964 3.30453 20.989L7.97518 19.5048C9.2533 20.1877 10.6979 20.5482 12.1598 20.5482C17.0343 20.5482 21 16.6124 21 11.7746C21 6.93627 17.0343 3 12.1598 3ZM12.1598 18.7204C10.7841 18.7204 9.4517 18.3232 8.30637 17.5716C8.26785 17.5463 8.22315 17.5334 8.17815 17.5334C8.15436 17.5334 8.13052 17.537 8.10731 17.5443L5.7676 18.2881L6.5229 16.0598C6.54733 15.9876 6.53512 15.9081 6.49012 15.8466C5.61794 14.6549 5.15689 13.2469 5.15689 11.7746C5.15689 7.94416 8.29836 4.82782 12.1597 4.82782C16.0206 4.82782 19.1617 7.94416 19.1617 11.7746C19.1618 15.6046 16.0207 18.7204 12.1598 18.7204Z" fill="white"/>
</g>
<defs>
<clipPath id="clip0_336_4">
<rect width="18" height="18" fill="white" transform="translate(3 3)"/>
</clipPath>
</defs>
</svg>
