<svg width="142" height="25" viewBox="0 0 142 25" fill="none" xmlns="http://www.w3.org/2000/svg">
<path d="M53.4184 5.75707V23.5976H47.8847V21.0038C47.3238 21.7841 46.5579 22.4167 45.5871 22.9017C44.6378 23.3657 43.5807 23.5976 42.4157 23.5976C41.035 23.5976 39.8161 23.3024 38.7589 22.7119C37.7018 22.1004 36.882 21.2252 36.2995 20.0865C35.717 18.9477 35.4258 17.6086 35.4258 16.0692V5.75707H40.9271V15.3416C40.9271 16.5226 41.2399 17.4399 41.8656 18.0936C42.4912 18.7474 43.3326 19.0742 44.3897 19.0742C45.4684 19.0742 46.3206 18.7474 46.9462 18.0936C47.5719 17.4399 47.8847 16.5226 47.8847 15.3416V5.75707H53.4184Z" fill="#232323"/>
<path d="M64.7391 23.6609C63.1642 23.6609 61.7619 23.3973 60.5322 22.8701C59.3025 22.3429 58.3317 21.6259 57.6197 20.7191C56.9078 19.7912 56.5087 18.7579 56.4224 17.6192H61.8914C61.9561 18.2307 62.2473 18.7263 62.7651 19.1059C63.2829 19.4855 63.9193 19.6753 64.6744 19.6753C65.3648 19.6753 65.8933 19.5487 66.2601 19.2957C66.6484 19.0215 66.8426 18.6736 66.8426 18.2518C66.8426 17.7457 66.5729 17.3766 66.0336 17.1447C65.4942 16.8916 64.6205 16.6175 63.4123 16.3222C62.1179 16.027 61.0392 15.7212 60.1763 15.4049C59.3133 15.0675 58.569 14.5508 57.9434 13.8549C57.3177 13.1379 57.0049 12.4315 57.0049 11.2294C57.0049 10.2172 57.2854 9.29988 57.8463 8.47744C58.4288 7.63391 59.2701 6.96964 60.3704 6.48461C61.4923 5.99958 62.8191 5.75707 64.3508 5.75707C66.6161 5.75707 68.3959 6.30536 69.6903 7.40195C71.0063 8.49853 71.7614 9.95361 71.9556 11.7672H66.8426C66.7563 11.1556 66.4758 10.6706 66.0012 10.3121C65.5481 9.95361 64.9441 9.77436 64.189 9.77436C63.5418 9.77436 63.0456 9.90089 62.7004 10.1539C62.3552 10.3859 62.1826 10.7128 62.1826 11.1345C62.1826 11.6407 62.4523 11.7672 62.9916 12.0202C63.5526 12.2733 64.4155 12.5264 65.5805 12.7794C66.9181 13.1168 68.0076 13.4542 68.849 13.7917C69.6903 14.108 70.4238 14.6352 71.0495 15.3733C71.6967 16.0903 72.0311 17.0603 72.0527 18.2834C72.0527 19.3168 71.7506 20.2446 71.1466 21.0671C70.5641 21.8684 69.7119 22.5011 68.5901 22.965C67.4898 23.4289 66.2062 23.6609 64.7391 23.6609Z" fill="#232323"/>
<path d="M85.5024 18.8212V23.6609H82.687C80.6806 23.6609 79.1165 23.1864 77.9947 22.2375C76.8728 21.2674 76.3119 19.4433 76.3119 17.2712V10.2488H74.1114V5.75707H76.3119V1.45508H81.8456V5.75707H85.47V10.2488H81.8456V17.3345C81.8456 17.8617 81.9751 18.2413 82.234 18.4732C82.4928 18.7052 82.9243 18.8212 83.5284 18.8212H85.5024Z" fill="#232323"/>
<path d="M87.4845 14.5508C87.4845 12.7372 87.8297 11.3982 88.52 10.0274C89.232 8.65669 90.192 7.60228 91.4002 6.8642C92.6083 6.12611 93.9567 5.75707 95.4453 5.75707C96.7181 5.75707 97.8292 6.01013 98.7784 6.51624C99.7492 7.02236 100.494 7.43358 101.011 8.25601V5.75707H106.545V23.6609H101.011V20.9089C100.472 21.7313 99.7169 22.3956 98.7461 22.9017C97.7968 23.4079 96.6858 23.6609 95.4129 23.6609C93.9459 23.6609 92.6083 23.2919 91.4002 22.5538C90.192 21.7946 89.232 20.7297 88.52 19.3589C87.8297 17.9671 87.4845 16.3644 87.4845 14.5508ZM101.011 14.5825C101.011 13.2328 100.623 12.4209 99.8463 11.6407C99.0912 10.8604 98.1636 10.4703 97.0633 10.4703C95.963 10.4703 95.0246 10.8604 94.2479 11.6407C93.4928 12.3998 93.1153 13.2012 93.1153 14.5508C93.1153 15.9005 93.4928 16.976 94.2479 17.7773C95.0246 18.5576 95.963 18.9477 97.0633 18.9477C98.1636 18.9477 99.0912 18.5576 99.8463 17.7773C100.623 16.9971 101.011 15.9321 101.011 14.5825Z" fill="#232323"/>
<path d="M116.082 8.69886C116.729 7.72881 117.538 6.96964 118.509 6.42134C119.48 5.85196 120.559 5.75707 121.745 5.75707V11.2927H120.224C118.844 11.2927 117.808 11.5879 117.118 12.1784C116.427 12.7478 116.082 13.76 116.082 15.2151V23.6609H110.548V5.75707H116.082V8.69886Z" fill="#232323"/>
<path d="M122.939 14.5508C122.939 12.7372 123.284 11.3982 123.975 10.0274C124.687 8.65669 125.647 7.60228 126.855 6.8642C128.063 6.12611 129.411 5.75707 130.9 5.75707C132.087 5.75707 133.165 5.99958 134.136 6.48461C135.128 6.96964 135.905 7.37031 136.466 8.19275V0H142V23.4079H136.466V20.8773C135.948 21.7208 135.204 22.3956 134.233 22.9017C133.284 23.4079 132.173 23.6609 130.9 23.6609C129.411 23.6609 128.063 23.2919 126.855 22.5538C125.647 21.7946 124.687 20.7297 123.975 19.3589C123.284 17.9671 122.939 16.3644 122.939 14.5508ZM136.466 14.5825C136.466 13.2328 136.078 12.4209 135.301 11.6407C134.546 10.8604 133.618 10.4703 132.518 10.4703C131.418 10.4703 130.479 10.8604 129.703 11.6407C128.948 12.3998 128.57 13.2012 128.57 14.5508C128.57 15.9005 128.948 16.976 129.703 17.7773C130.479 18.5576 131.418 18.9477 132.518 18.9477C133.618 18.9477 134.546 18.5576 135.301 17.7773C136.078 16.9971 136.466 15.9321 136.466 14.5825Z" fill="#232323"/>
<mask id="mask0_26_4069" style="mask-type:alpha" maskUnits="userSpaceOnUse" x="0" y="5" width="32" height="20">
<path fill-rule="evenodd" clip-rule="evenodd" d="M7.54118 5.14453C3.3763 5.14453 0 8.44482 0 12.5159V21.3709C0 22.8238 1.17778 24.0016 2.63064 24.0016C4.08351 24.0016 5.26129 22.8238 5.26129 21.3709V12.5159C5.26129 11.2851 6.28203 10.2874 7.54118 10.2874C8.80033 10.2874 9.82107 11.2851 9.82107 12.5159V13.7159H15.0824V12.5159C15.0824 8.44482 11.7061 5.14453 7.54118 5.14453Z" fill="#FF065C"/>
<path fill-rule="evenodd" clip-rule="evenodd" d="M24.3771 5.14453C20.2122 5.14453 16.8359 8.44482 16.8359 12.5159V13.7159H22.0972V12.5159C22.0972 11.2851 23.118 10.2874 24.3771 10.2874C25.6363 10.2874 26.657 11.2851 26.657 12.5159V21.3709C26.657 22.8238 27.8348 24.0016 29.2877 24.0016C30.7405 24.0016 31.9183 22.8238 31.9183 21.3709V12.5159C31.9183 8.44482 28.542 5.14453 24.3771 5.14453Z" fill="#FF065C"/>
<path fill-rule="evenodd" clip-rule="evenodd" d="M15.9585 24C12.5685 24 9.82031 21.2519 9.82031 17.8618V13.7143H15.0801V17.9395C15.0801 18.4238 15.4727 18.8164 15.957 18.8164C16.4412 18.8164 16.8338 18.4238 16.8338 17.9395V13.7143H22.0967V17.8618C22.0967 21.2518 19.3485 24 15.9585 24Z" fill="#FF065C"/>
</mask>
<g mask="url(#mask0_26_4069)">
<ellipse rx="32.0938" ry="31.3713" transform="matrix(0.999969 0.00785455 -0.00822052 0.999966 28.6982 7.54033)" fill="#FFAC39"/>
<ellipse rx="32.0938" ry="31.3713" transform="matrix(0.999969 0.00785455 -0.00822052 0.999966 2.18651 32.3606)" fill="#FF065C"/>
<ellipse rx="32.0938" ry="31.3713" transform="matrix(0.999969 0.00785455 -0.00822052 0.999966 -13.6748 -1.02217)" fill="#1F3FFF"/>
</g>
</svg>
