<svg width="24" height="24" viewBox="0 0 24 24" fill="none" xmlns="http://www.w3.org/2000/svg">
<path d="M15 3V5" stroke="#0ADA38" stroke-width="1.5" stroke-linecap="round" stroke-linejoin="round"/>
<path d="M11 3V5" stroke="#0ADA38" stroke-width="1.5" stroke-linecap="round" stroke-linejoin="round"/>
<path d="M7 3V5" stroke="#0ADA38" stroke-width="1.5" stroke-linecap="round" stroke-linejoin="round"/>
<path d="M19 12.26V6C19 4.895 18.105 4 17 4H5C3.895 4 3 4.895 3 6V17C3 18.105 3.895 19 5 19H13.758" stroke="#0ADA38" stroke-width="1.5" stroke-linecap="round" stroke-linejoin="round"/>
<path d="M7 9H15" stroke="#0ADA38" stroke-width="1.5" stroke-linecap="round" stroke-linejoin="round"/>
<path d="M7 13H10" stroke="#0ADA38" stroke-width="1.5" stroke-linecap="round" stroke-linejoin="round"/>
<path d="M17.501 21C15.016 21 13.001 18.985 13.001 16.5C13.001 14.066 15.071 11.998 17.505 12C19.989 12.002 22.001 14.016 22.001 16.5C22.001 18.985 19.987 21 17.501 21" stroke="#0ADA38" stroke-width="1.5" stroke-linecap="round" stroke-linejoin="round"/>
<path fill-rule="evenodd" clip-rule="evenodd" d="M17.7258 18.0746L19.5258 16.2746L17.7258 14.4746L15.9258 16.2746V18.0746H17.7258Z" stroke="#0ADA38" stroke-width="1.5" stroke-linecap="round" stroke-linejoin="round"/>
</svg>
