<svg width="24" height="24" viewBox="0 0 24 24" fill="none" xmlns="http://www.w3.org/2000/svg">
<path d="M14 15V14C14 12.343 12.657 11 11 11H6C4.343 11 3 12.343 3 14V15" stroke="#0ADA38" stroke-width="1.5" stroke-linecap="round" stroke-linejoin="round"/>
<path fill-rule="evenodd" clip-rule="evenodd" d="M12 21H5C3.895 21 3 20.105 3 19V18H14V19C14 20.105 13.105 21 12 21Z" stroke="#0ADA38" stroke-width="1.5" stroke-linecap="round" stroke-linejoin="round"/>
<path d="M2 15H15" stroke="#0ADA38" stroke-width="1.5" stroke-linecap="round" stroke-linejoin="round"/>
<path d="M10.6842 11L10.3032 8.132C10.2242 7.532 10.6902 7 11.2952 7H20.0002C20.6092 7 21.0762 7.539 20.9902 8.141L19.2762 20.141C19.2052 20.634 18.7832 21 18.2862 21H16.1532" stroke="#0ADA38" stroke-width="1.5" stroke-linecap="round" stroke-linejoin="round"/>
<path d="M19.1531 3H17.0161C16.5201 3 16.1001 3.363 16.0271 3.853L15.5591 7" stroke="#0ADA38" stroke-width="1.5" stroke-linecap="round" stroke-linejoin="round"/>
</svg>
